<svg width="15" height="13" viewBox="0 0 15 13" fill="none" xmlns="http://www.w3.org/2000/svg">
<path d="M0 6.13637C0 5.79244 0.255576 5.50821 0.587168 5.46322L0.679352 5.45702L12.6215 5.45756L8.30713 1.16086C8.04126 0.896128 8.04033 0.465987 8.30506 0.200112C8.54573 -0.0415916 8.9231 -0.0643301 9.18947 0.13243L9.26581 0.198044L14.7459 5.6546C14.781 5.6895 14.8114 5.72726 14.8372 5.76715C14.8445 5.77915 14.852 5.79143 14.859 5.80396C14.8655 5.8147 14.8713 5.82585 14.8769 5.83713C14.8845 5.85353 14.892 5.87048 14.8988 5.88777C14.9044 5.9011 14.909 5.91407 14.9132 5.92714C14.9182 5.94335 14.923 5.96062 14.9272 5.97816C14.9303 5.9904 14.9328 6.00218 14.935 6.01401C14.938 6.03161 14.9405 6.04983 14.9424 6.06826C14.944 6.08231 14.9449 6.09624 14.9454 6.11018C14.9456 6.11863 14.9458 6.12748 14.9458 6.13637L14.9454 6.16269C14.9449 6.17602 14.944 6.18934 14.9427 6.20263L14.9458 6.13637C14.9458 6.17924 14.9418 6.22119 14.9342 6.26185C14.9324 6.27157 14.9303 6.28154 14.928 6.29147C14.9232 6.31192 14.9176 6.33161 14.9112 6.35092C14.908 6.36051 14.9044 6.37076 14.9004 6.38093C14.8925 6.40137 14.8839 6.42086 14.8744 6.43984C14.87 6.44877 14.865 6.45811 14.8598 6.46736C14.8514 6.48245 14.8426 6.49679 14.8334 6.51077C14.8268 6.52066 14.8196 6.53095 14.8121 6.54109L14.8062 6.54892C14.7879 6.57283 14.768 6.59549 14.7468 6.61675L14.746 6.61738L9.26585 12.0748C9 12.3396 8.56986 12.3387 8.3051 12.0729C8.06442 11.8312 8.04327 11.4537 8.24116 11.1882L8.30709 11.1121L12.6196 6.81627L0.679352 6.81573C0.304156 6.81573 0 6.51157 0 6.13637Z" fill="#313131"/>
</svg>
