<svg width="55" height="55" viewBox="0 0 55 55" fill="none" xmlns="http://www.w3.org/2000/svg">
<path d="M34.0376 53.9995C32.5077 53.9254 30.9967 53.6305 29.5515 53.1239C28.49 52.7457 27.3856 52.5006 26.2636 52.3942C25.1913 52.45 24.1281 52.6213 23.0926 52.905C20.9299 53.4304 18.4604 54.0287 16.1515 52.9926C13.8427 51.9564 12.6591 49.7236 11.6362 47.7534C11.1803 46.7818 10.6061 45.8701 9.92648 45.039C9.12295 44.2669 8.22436 43.6 7.25233 43.0543C5.3819 41.9014 3.27765 40.588 2.4155 38.3259C1.55334 36.0639 2.1963 33.6706 2.86849 31.5837C3.23356 30.512 3.46425 29.3993 3.55529 28.2709C3.51501 27.1984 3.34325 26.1349 3.04385 25.1041C2.51779 22.9442 1.91866 20.4925 2.95617 18.1721C4.14895 16.1273 5.99713 14.5438 8.20217 13.6773C9.17585 13.2175 10.0888 12.6391 10.9201 11.9552C11.6886 11.1541 12.356 10.2622 12.9075 9.29918C14.0619 7.35823 15.3771 5.25674 17.6566 4.39572C19.9362 3.53469 22.3035 4.24978 24.4078 4.92109C25.4688 5.30071 26.5734 5.54585 27.6956 5.65077C28.7693 5.59769 29.8333 5.42141 30.8666 5.1254C33.0293 4.61462 35.4989 4.01628 37.8077 5.05243C39.8532 6.23002 41.4433 8.05964 42.3231 10.2478C42.7789 11.2194 43.3531 12.1311 44.0328 12.9622C44.8544 13.7384 45.7728 14.4054 46.7654 14.9469C48.6358 16.0998 50.74 17.4133 51.6022 19.6753C52.4643 21.9373 51.7483 24.3306 51.12 26.4321C50.7413 27.4922 50.4959 28.5952 50.3893 29.7157C50.4296 30.7882 50.6014 31.8517 50.9008 32.8825C51.4268 35.0424 52.026 37.4941 50.9885 39.8145C49.9509 42.1203 47.7152 43.3024 45.7425 44.3385C44.767 44.7974 43.8497 45.3706 43.0099 46.046C42.2427 46.8714 41.5802 47.788 41.0371 48.775C39.8827 50.643 38.5676 52.7445 36.3026 53.6055C35.5785 53.8755 34.8105 54.0091 34.0376 53.9995ZM26.1321 48.702H26.3659C27.8107 48.8077 29.2354 49.102 30.6036 49.5776C31.9867 50.196 33.5201 50.3989 35.0167 50.1614C36.1272 49.7528 37.004 48.3226 37.9392 46.8195C38.6515 45.562 39.5206 44.3998 40.5257 43.3608C41.598 42.4556 42.7814 41.6905 44.0474 41.0841C45.5117 40.5383 46.7754 39.5612 47.6713 38.2822C48.0367 36.7638 47.9296 35.1703 47.3645 33.7144C46.9684 32.3816 46.7474 31.0031 46.7069 29.6135C46.8127 28.1706 47.1074 26.7478 47.5837 25.3814C48.2029 24.0001 48.406 22.4687 48.1682 20.9741C47.7444 19.865 46.327 18.9894 44.8218 18.0554C43.5627 17.344 42.3991 16.4761 41.3586 15.4723C40.4625 14.3998 39.7063 13.218 39.1082 11.9552C38.5569 10.4955 37.5795 9.23475 36.3026 8.336C34.7833 7.97206 33.1894 8.07378 31.7288 8.62788C30.3895 9.04768 28.9969 9.27375 27.5934 9.29918C26.1371 9.17929 24.7027 8.87022 23.3264 8.37978C21.9488 7.77781 20.4253 7.59016 18.9426 7.83982C17.832 8.26303 16.9552 9.67862 16.02 11.1818C15.3057 12.429 14.4366 13.5812 13.4335 14.6113C12.3612 15.5165 11.1778 16.2815 9.91186 16.8879C8.45027 17.4385 7.18781 18.4147 6.28789 19.6899C5.92347 21.2072 6.02532 22.799 6.58014 24.2577C6.99242 25.5971 7.2186 26.9868 7.25233 28.3877C7.13228 29.8421 6.8228 31.2746 6.33173 32.649C5.72896 34.0248 5.54106 35.5463 5.79105 37.0271C6.21483 38.1362 7.63227 39.0118 9.13739 39.9458C10.3965 40.6572 11.5602 41.5252 12.6006 42.5289C13.4967 43.6015 14.2529 44.7833 14.851 46.046C15.4024 47.5057 16.3798 48.7665 17.6566 49.6652C19.1776 50.0227 20.771 49.9159 22.2305 49.3587C23.5006 48.9874 24.8102 48.767 26.1321 48.702Z" fill="#05A42C"/>
<path d="M23.3967 37.8105C23.0938 37.8141 22.7932 37.7584 22.5122 37.6465C22.2312 37.5346 21.9754 37.3688 21.7594 37.1586L14.9843 30.5837C14.7643 30.3709 14.5889 30.1174 14.4679 29.8374C14.347 29.5575 14.2829 29.2568 14.2794 28.9524C14.276 28.648 14.3331 28.3459 14.4475 28.0633C14.562 27.7808 14.7316 27.5233 14.9466 27.3056C15.1616 27.0879 15.4179 26.9143 15.7007 26.7946C15.9835 26.6749 16.2874 26.6115 16.595 26.6081C16.9025 26.6046 17.2078 26.6611 17.4933 26.7744C17.7788 26.8877 18.039 27.0556 18.2589 27.2684L23.4155 32.2601L35.7049 20.6748C35.9247 20.4464 36.1892 20.2645 36.4823 20.1403C36.7754 20.0162 37.0909 19.9522 37.4097 19.9524C37.7285 19.9526 38.0439 20.0169 38.3368 20.1414C38.6297 20.2659 38.894 20.4481 39.1136 20.6768C39.3332 20.9055 39.5036 21.176 39.6143 21.4719C39.725 21.7677 39.7739 22.0828 39.7578 22.3979C39.7417 22.713 39.6611 23.0216 39.5209 23.3049C39.3806 23.5883 39.1836 23.8404 38.9419 24.0461L25.0152 37.0841C24.8071 37.3048 24.557 37.4825 24.2792 37.6072C24.0015 37.7318 23.7016 37.8009 23.3967 37.8105Z" fill="#05A42C"/>
</svg>
