<svg width="55" height="55" viewBox="0 0 55 55" fill="none" xmlns="http://www.w3.org/2000/svg">
<path d="M16.9535 24.776L17.2933 25.0309C17.574 25.2263 17.7836 25.5074 17.8908 25.8321C17.9981 26.1569 17.997 26.5076 17.8879 26.8317L17.752 27.2394C17.4357 28.2455 17.4449 29.3257 17.7781 30.3262C18.1114 31.3268 18.7518 32.1967 19.6082 32.8122C20.4646 33.4276 21.4933 33.7573 22.5479 33.7541C23.6025 33.751 24.6292 33.4153 25.4819 32.7947L25.8217 32.5569C26.0958 32.3502 26.4297 32.2384 26.773 32.2384C27.1164 32.2384 27.4503 32.3502 27.7244 32.5569L28.0642 32.7947C28.9296 33.369 29.9498 33.6651 30.9883 33.6435C32.0267 33.6219 33.0337 33.2835 33.8744 32.6737C34.7152 32.064 35.3496 31.2118 35.6927 30.2315C36.0358 29.2512 36.0711 28.1894 35.7941 27.1884L35.6582 26.7807C35.5491 26.4566 35.548 26.1059 35.6552 25.7812C35.7625 25.4565 35.9721 25.1753 36.2528 24.9799L36.5926 24.7251C37.3869 24.0689 37.9637 23.1873 38.2469 22.1967C38.5301 21.206 38.5064 20.1528 38.1789 19.1759C37.8514 18.1991 37.2356 17.3443 36.4125 16.7245C35.5895 16.1047 34.5979 15.7489 33.5686 15.704H33.1438C32.8064 15.6903 32.4807 15.5763 32.2084 15.3766C31.936 15.1768 31.7294 14.9005 31.6149 14.5828L31.5469 14.1071C31.1832 13.1345 30.5312 12.2962 29.6781 11.7044C28.8249 11.1126 27.8114 10.7954 26.773 10.7954C25.7347 10.7954 24.7212 11.1126 23.868 11.7044C23.0149 12.2962 22.3628 13.1345 21.9992 14.1071L21.8633 14.5148C21.7487 14.8325 21.5421 15.1089 21.2698 15.3086C20.9974 15.5083 20.6717 15.6223 20.3343 15.6361H19.9775C18.9418 15.6823 17.9447 16.0432 17.1194 16.6709C16.2941 17.2985 15.6799 18.1629 15.3587 19.1487C15.0375 20.1345 15.0245 21.1948 15.3216 22.1881C15.6187 23.1815 16.2117 24.0606 17.0215 24.7081L16.9535 24.776ZM18.3636 20.2231C18.4637 19.8797 18.6786 19.5811 18.9723 19.377C19.266 19.173 19.6208 19.0758 19.9775 19.1018H20.4023C21.4509 19.0953 22.472 18.7656 23.3263 18.1575C24.1806 17.5495 24.8266 16.6927 25.1761 15.704L25.295 15.3133C25.4302 15.0167 25.6478 14.7652 25.9219 14.5889C26.196 14.4125 26.5151 14.3188 26.841 14.3188C27.1669 14.3188 27.486 14.4125 27.7601 14.5889C28.0342 14.7652 28.2518 15.0167 28.387 15.3133V15.3133L28.5059 15.704C28.8412 16.7086 29.481 17.5837 30.3366 18.2079C31.1921 18.832 32.2208 19.1741 33.2798 19.1867H33.5686C33.9103 19.1854 34.2436 19.2926 34.5204 19.4929C34.7973 19.6931 35.0035 19.9761 35.1093 20.301C35.2151 20.6259 35.215 20.976 35.1091 21.3009C35.0032 21.6258 34.7969 21.9087 34.5199 22.1088L34.1802 22.3636C33.3197 22.9828 32.6793 23.8604 32.3524 24.8688C32.0254 25.8772 32.0289 26.9637 32.3624 27.9699L32.4983 28.3777C32.5587 28.6953 32.5273 29.0235 32.4077 29.3238C32.288 29.6242 32.0852 29.8842 31.823 30.0733C31.5608 30.2623 31.25 30.3727 30.9273 30.3913C30.6045 30.41 30.2832 30.3361 30.0009 30.1785L29.6611 29.9406C28.798 29.3261 27.7647 28.9958 26.7051 28.9958C25.6455 28.9958 24.6122 29.3261 23.749 29.9406L23.4093 30.1785C23.127 30.3361 22.8057 30.41 22.4829 30.3913C22.1602 30.3727 21.8494 30.2623 21.5872 30.0733C21.325 29.8842 21.1221 29.6242 21.0025 29.3238C20.8829 29.0235 20.8515 28.6953 20.9119 28.3777L21.0478 27.9699C21.3813 26.9637 21.3848 25.8772 21.0578 24.8688C20.7309 23.8604 20.0905 22.9828 19.23 22.3636L18.8903 22.1088C18.6008 21.9015 18.3908 21.6015 18.2951 21.2586C18.1993 20.9157 18.2235 20.5504 18.3636 20.2231Z" fill="#05A42C"/>
<path d="M45.6878 22.7213C45.6933 19.6696 44.9513 16.6629 43.5267 13.9641C42.1021 11.2652 40.0383 8.95636 37.5155 7.23917C34.9927 5.52198 32.0878 4.44875 29.0545 4.11327C26.0213 3.77778 22.952 4.19025 20.1149 5.31462C17.2779 6.439 14.7593 8.24107 12.7794 10.5634C10.7995 12.8856 9.41839 15.6575 8.75686 18.6367C8.09532 21.6159 8.17345 24.7117 8.98443 27.6537C9.7954 30.5958 11.3145 33.2944 13.4091 35.5139V53.3011C13.4093 53.5815 13.479 53.8575 13.6118 54.1045C13.7446 54.3514 13.9365 54.5617 14.1703 54.7164C14.4041 54.8712 14.6726 54.9657 14.9519 54.9914C15.2311 55.0172 15.5123 54.9734 15.7705 54.8641L27.0001 50.0563L38.2297 54.8641C38.4392 54.9533 38.6645 54.9996 38.8923 55C39.2253 54.9974 39.5502 54.897 39.8267 54.7112C40.0603 54.5573 40.2524 54.3481 40.3858 54.1021C40.5192 53.8561 40.5897 53.5809 40.5911 53.3011V35.5139C43.8564 32.0539 45.6792 27.4788 45.6878 22.7213V22.7213ZM27.0001 7.43142C30.0242 7.43142 32.9803 8.32816 35.4947 10.0082C38.0091 11.6883 39.9689 14.0763 41.1262 16.8701C42.2834 19.664 42.5862 22.7383 41.9962 25.7042C41.4063 28.6702 39.95 31.3946 37.8117 33.5329C35.6734 35.6712 32.949 37.1275 29.983 37.7174C27.0171 38.3074 23.9428 38.0046 21.1489 36.8474C18.3551 35.6901 15.9671 33.7303 14.287 31.2159C12.607 28.7015 11.7102 25.7454 11.7102 22.7213C11.7102 18.6662 13.3211 14.7771 16.1885 11.9097C19.0559 9.04232 22.945 7.43142 27.0001 7.43142V7.43142ZM27.6627 46.6415C27.4531 46.5527 27.2278 46.507 27.0001 46.507C26.7725 46.507 26.5472 46.5527 26.3376 46.6415L16.8069 50.7188V38.368C19.8401 40.342 23.3812 41.3928 27.0001 41.3928C30.6191 41.3928 34.1602 40.342 37.1934 38.368V50.7188L27.6627 46.6415Z" fill="#05A42C"/>
</svg>
