<svg width="16" height="16" viewBox="0 0 16 16" fill="none" xmlns="http://www.w3.org/2000/svg">
<path d="M11.809 2.75635C11.3135 2.75635 10.9082 3.16169 10.9082 3.6571C10.9082 4.16152 11.3135 4.56686 11.809 4.56686C12.3134 4.56686 12.7187 4.16152 12.7187 3.6571C12.7097 3.16169 12.3044 2.75635 11.809 2.75635Z" fill="#046D1E"/>
<path d="M7.78238 3.91846C5.68363 3.91846 3.9812 5.62088 3.9812 7.71964C3.9812 9.8184 5.68363 11.5208 7.78238 11.5208C9.88114 11.5208 11.5836 9.8184 11.5836 7.71964C11.5836 5.62088 9.88114 3.91846 7.78238 3.91846ZM7.78238 10.1607C6.44026 10.1607 5.35035 9.07077 5.35035 7.72865C5.35035 6.38652 6.44026 5.29661 7.78238 5.29661C9.12451 5.29661 10.2144 6.38652 10.2144 7.72865C10.2144 9.07077 9.12451 10.1607 7.78238 10.1607Z" fill="#046D1E"/>
<path d="M10.8 15.4389H4.63888C2.08074 15.4389 0 13.3582 0 10.8V4.63888C0 2.08074 2.08074 0 4.63888 0H10.8C13.3582 0 15.4389 2.08074 15.4389 4.63888V10.8C15.4389 13.3582 13.3582 15.4389 10.8 15.4389ZM4.63888 1.45021C2.88241 1.45021 1.45021 2.88241 1.45021 4.63888V10.8C1.45021 12.5565 2.88241 13.9887 4.63888 13.9887H10.8C12.5565 13.9887 13.9887 12.5565 13.9887 10.8V4.63888C13.9887 2.88241 12.5565 1.45021 10.8 1.45021H4.63888Z" fill="#046D1E"/>
</svg>
