<svg width="13" height="16" viewBox="0 0 13 16" fill="none" xmlns="http://www.w3.org/2000/svg">
<path fill-rule="evenodd" clip-rule="evenodd" d="M5.44867 10.4305C5.4392 10.4756 5.42028 10.5117 5.41081 10.5568C4.79557 12.8573 4.72931 13.3716 4.09513 14.4451C3.79224 14.9503 3.4515 15.4375 3.07289 15.8976C3.02556 15.9517 2.9877 16.0149 2.90251 15.9969C2.80786 15.9788 2.79839 15.8976 2.78892 15.8254C2.68481 15.1218 2.62801 14.4271 2.65641 13.7144C2.68481 12.7942 2.80786 12.4784 4.05728 7.48946C4.07621 7.41729 4.05727 7.35414 4.02887 7.28197C3.73545 6.51513 3.66919 5.73927 3.93422 4.94537C4.50214 3.24028 6.51825 3.11398 6.87793 4.52135C7.09563 5.38742 6.51825 6.52415 6.07338 8.2112C5.70423 9.60053 7.41745 10.5839 8.88457 9.57346C10.2381 8.64423 10.7587 6.40687 10.6546 4.81906C10.4558 1.6615 6.82114 0.975854 4.51161 1.9953C1.87079 3.15909 1.26501 6.28959 2.45764 7.715C2.60908 7.89544 2.72266 8.0037 2.67534 8.19315C2.59962 8.48184 2.53336 8.77054 2.44817 9.05021C2.38192 9.25771 2.20207 9.3389 1.97491 9.24868C1.53004 9.07727 1.17036 8.81564 0.86747 8.4638C-0.145316 7.26393 -0.438739 4.90026 0.905333 2.89746C2.39138 0.678141 5.15525 -0.224025 7.67302 0.0466235C10.683 0.371402 12.595 2.33812 12.9452 4.55744C13.1061 5.56786 12.9925 8.07587 11.497 9.84411C9.77431 11.874 6.99151 12.0093 5.70423 10.7643C5.62851 10.6651 5.54332 10.5478 5.44867 10.4305Z" fill="#046D1E"/>
</svg>
