<svg width="33" height="32" viewBox="0 0 33 32" fill="none" xmlns="http://www.w3.org/2000/svg">
<path d="M16.3729 0.748919C16.7094 -0.164256 18.0196 -0.107542 18.2759 0.831292L20.9273 10.5427C21.0418 10.9622 21.4143 11.2596 21.8487 11.2784L31.8019 11.7092C32.7661 11.751 33.1176 12.9993 32.3169 13.538L23.9811 19.146C23.6251 19.3855 23.4616 19.8253 23.5746 20.2391L26.2375 29.9931C26.493 30.929 25.4002 31.6439 24.645 31.0348L16.8805 24.7723C16.5392 24.497 16.0583 24.4762 15.6945 24.7209L7.41785 30.2892C6.61292 30.8307 5.5859 30.024 5.92132 29.1137L9.41714 19.6263C9.56546 19.2238 9.44052 18.7715 9.10661 18.5022L1.28653 12.1949C0.535333 11.589 0.993391 10.3757 1.95757 10.4174L11.9108 10.8482C12.3452 10.8671 12.742 10.603 12.8923 10.1949L16.3729 0.748919Z" fill="#05A42C"/>
</svg>
