<svg width="104" height="19" viewBox="0 0 104 19" fill="none" xmlns="http://www.w3.org/2000/svg">
<path d="M17.32 7.77427C17.4066 7.32009 17.0602 6.77507 16.6272 6.77507L11.691 6.04838L9.43938 1.32488C9.35279 1.14321 9.26619 1.05237 9.09299 0.961534C8.65999 0.689024 8.14039 0.870697 7.88059 1.32488L5.71559 6.04838L0.779399 6.77507C0.519599 6.77507 0.346399 6.8659 0.2598 7.04758C-0.0865999 7.41092 -0.0865999 7.95594 0.2598 8.31929L3.81039 11.9527L2.9444 17.1304C2.9444 17.3121 2.9444 17.4938 3.031 17.6754C3.29079 18.1296 3.81039 18.3113 4.24339 18.0388L8.65999 15.5862L13.0766 18.0388C13.1632 18.1296 13.3364 18.1296 13.5096 18.1296C13.5962 18.1296 13.5962 18.1296 13.6828 18.1296C14.1158 18.0388 14.4622 17.5846 14.3756 17.0396L13.5096 11.8619L17.0602 8.22845C17.2334 8.13762 17.32 7.95594 17.32 7.77427Z" fill="#FF8A00"/>
<path d="M38.9867 7.77427C39.0733 7.32009 38.7269 6.77507 38.2939 6.77507L33.3577 6.04838L31.1061 1.32488C31.0195 1.14321 30.9329 1.05237 30.7597 0.961534C30.3267 0.689024 29.8071 0.870697 29.5473 1.32488L27.3823 6.04838L22.4461 6.77507C22.1863 6.77507 22.0131 6.8659 21.9265 7.04758C21.5801 7.41092 21.5801 7.95594 21.9265 8.31929L25.4771 11.9527L24.6111 17.1304C24.6111 17.3121 24.6111 17.4938 24.6977 17.6754C24.9575 18.1296 25.4771 18.3113 25.9101 18.0388L30.3267 15.5862L34.7433 18.0388C34.8299 18.1296 35.0031 18.1296 35.1763 18.1296C35.2629 18.1296 35.2629 18.1296 35.3495 18.1296C35.7825 18.0388 36.1289 17.5846 36.0423 17.0396L35.1763 11.8619L38.7269 8.22845C38.9001 8.13762 38.9867 7.95594 38.9867 7.77427Z" fill="#FF8A00"/>
<path d="M60.6532 7.77427C60.7398 7.32009 60.3934 6.77507 59.9604 6.77507L55.0242 6.04838L52.7726 1.32488C52.686 1.14321 52.5994 1.05237 52.4262 0.961534C51.9932 0.689024 51.4736 0.870697 51.2138 1.32488L49.0488 6.04838L44.1127 6.77507C43.8529 6.77507 43.6797 6.8659 43.5931 7.04758C43.2467 7.41092 43.2467 7.95594 43.5931 8.31929L47.1436 11.9527L46.2776 17.1304C46.2776 17.3121 46.2776 17.4938 46.3642 17.6754C46.624 18.1296 47.1436 18.3113 47.5766 18.0388L51.9932 15.5862L56.4098 18.0388C56.4964 18.1296 56.6696 18.1296 56.8428 18.1296C56.9294 18.1296 56.9294 18.1296 57.016 18.1296C57.449 18.0388 57.7954 17.5846 57.7088 17.0396L56.8428 11.8619L60.3934 8.22845C60.5666 8.13762 60.6532 7.95594 60.6532 7.77427Z" fill="#FF8A00"/>
<path d="M82.32 7.77427C82.4066 7.32009 82.0602 6.77507 81.6272 6.77507L76.691 6.04838L74.4394 1.32488C74.3528 1.14321 74.2662 1.05237 74.093 0.961534C73.66 0.689024 73.1404 0.870697 72.8806 1.32488L70.7156 6.04838L65.7794 6.77507C65.5196 6.77507 65.3464 6.8659 65.2598 7.04758C64.9134 7.41092 64.9134 7.95594 65.2598 8.31929L68.8104 11.9527L67.9444 17.1304C67.9444 17.3121 67.9444 17.4938 68.031 17.6754C68.2908 18.1296 68.8104 18.3113 69.2434 18.0388L73.66 15.5862L78.0766 18.0388C78.1632 18.1296 78.3364 18.1296 78.5096 18.1296C78.5962 18.1296 78.5962 18.1296 78.6828 18.1296C79.1158 18.0388 79.4622 17.5846 79.3756 17.0396L78.5096 11.8619L82.0602 8.22845C82.2334 8.13762 82.32 7.95594 82.32 7.77427Z" fill="#FF8A00"/>
<path d="M103.987 7.77427C104.073 7.32009 103.727 6.77507 103.294 6.77507L98.3577 6.04838L96.1061 1.32488C96.0195 1.14321 95.9329 1.05237 95.7597 0.961534C95.3267 0.689024 94.8071 0.870697 94.5473 1.32488L92.3823 6.04838L87.4461 6.77507C87.1863 6.77507 87.0131 6.8659 86.9265 7.04758C86.5801 7.41092 86.5801 7.95594 86.9265 8.31929L90.4771 11.9527L89.6111 17.1304C89.6111 17.3121 89.6111 17.4938 89.6977 17.6754C89.9575 18.1296 90.4771 18.3113 90.9101 18.0388L95.3267 15.5862L99.7433 18.0388C99.8299 18.1296 100.003 18.1296 100.176 18.1296C100.263 18.1296 100.263 18.1296 100.35 18.1296C100.783 18.0388 101.129 17.5846 101.042 17.0396L100.176 11.8619L103.727 8.22845C103.9 8.13762 103.987 7.95594 103.987 7.77427Z" fill="#FF8A00"/>
</svg>
